<svg width="964.5400390625px" height="134.039990234375px" xmlns="http://www.w3.org/2000/svg" viewBox="-232.27001953125 7.980004882812494 964.5400390625 134.039990234375" style="background: rgb(0, 0, 0) none repeat scroll 0% 0%;" preserveAspectRatio="xMidYMid"><defs><filter id="editing-hole" x="-100%" y="-100%" width="300%" height="300%"><feFlood flood-color="#ffffff" result="black"></feFlood><feMorphology operator="dilate" radius="2" in="SourceGraphic" result="erode"></feMorphology><feGaussianBlur in="erode" stdDeviation="4" result="blur"></feGaussianBlur><feOffset in="blur" dx="2" dy="2" result="offset"></feOffset><feComposite operator="atop" in="offset" in2="black" result="merge"></feComposite><feComposite operator="in" in="merge" in2="SourceGraphic" result="inner-shadow"></feComposite></filter></defs><g filter="url(#editing-hole)"><g transform="translate(-97.90430450439453, 107.279296875)"><path d="M31.44-46.06L39.06-46.06L39.06 0L31.44 0L13.38-31.75L13.38 0L5.75 0L5.75-46.06L13.38-46.06L31.44-14.31L31.44-46.06ZM64.88-35.63L64.88-35.63L64.88-35.63Q69.13-35.63 72.38-33.91L72.38-33.91L72.38-33.91Q75.63-32.19 77.72-29.34L77.72-29.34L77.72-29.34Q79.81-26.50 80.72-22.78L80.72-22.78L80.72-22.78Q81.63-19.06 81.06-15.06L81.06-15.06L56.56-15.06L56.56-15.06Q56.56-13.06 57.31-11.38L57.31-11.38L57.31-11.38Q58.06-9.69 59.34-8.47L59.34-8.47L59.34-8.47Q60.63-7.25 62.41-6.56L62.41-6.56L62.41-6.56Q64.19-5.88 66.25-5.88L66.25-5.88L66.25-5.88Q66.94-5.88 67.97-6.03L67.97-6.03L67.97-6.03Q69-6.19 70.16-6.59L70.16-6.59L70.16-6.59Q71.31-7 72.47-7.63L72.47-7.63L72.47-7.63Q73.63-8.25 74.50-9.13L74.50-9.13L77.25-4.94L77.25-4.94Q75.19-2.38 72.44-1.06L72.44-1.06L72.44-1.06Q69.69 0.25 65.44 0.25L65.44 0.25L65.44 0.25Q62 0.25 59-1.16L59-1.16L59-1.16Q56-2.56 53.88-5L53.88-5L53.88-5Q51.75-7.44 50.50-10.69L50.50-10.69L50.50-10.69Q49.25-13.94 49.25-17.69L49.25-17.69L49.25-17.69Q49.25-21.38 50.50-24.66L50.50-24.66L50.50-24.66Q51.75-27.94 53.84-30.38L53.84-30.38L53.84-30.38Q55.94-32.81 58.81-34.22L58.81-34.22L58.81-34.22Q61.69-35.63 64.88-35.63ZM56.81-20.56L74.06-20.56L74.06-20.56Q74.06-22.25 73.44-23.88L73.44-23.88L73.44-23.88Q72.81-25.50 71.72-26.81L71.72-26.81L71.72-26.81Q70.63-28.13 69.06-28.91L69.06-28.91L69.06-28.91Q67.50-29.69 65.69-29.75L65.69-29.75L65.69-29.75Q63.75-29.75 62.13-29L62.13-29L62.13-29Q60.50-28.25 59.31-27L59.31-27L59.31-27Q58.13-25.75 57.47-24.03L57.47-24.03L57.47-24.03Q56.81-22.31 56.81-20.56L56.81-20.56ZM91.38-34.06L91.38-34L91.38-35.25L99-35.25L99-16.06L99-16.06Q99-13.88 99.19-11.97L99.19-11.97L99.19-11.97Q99.38-10.06 100-8.63L100-8.63L100-8.63Q100.63-7.19 101.88-6.31L101.88-6.31L101.88-6.31Q103.13-5.44 105.19-5.44L105.19-5.44L105.19-5.44Q105.81-5.44 106.94-5.59L106.94-5.59L106.94-5.59Q108.06-5.75 109.22-6.13L109.22-6.13L109.22-6.13Q110.38-6.50 111.41-7.06L111.41-7.06L111.41-7.06Q112.44-7.63 112.94-8.38L112.94-8.38L112.94-8.81L112.94-8.88L112.94-22.88L112.94-22.94L112.94-35.25L120.56-35.25L120.56 0L113.75 0L112.94-3.63L112.94-3.63Q112.19-2.94 111.06-2.25L111.06-2.25L111.06-2.25Q109.94-1.56 108.59-0.97L108.59-0.97L108.59-0.97Q107.25-0.38 105.84-0.03L105.84-0.03L105.84-0.03Q104.44 0.31 103.06 0.31L103.06 0.31L103.06 0.31Q101.56 0.31 100.38 0.03L100.38 0.03L100.38 0.03Q99.19-0.25 98.16-0.84L98.16-0.84L98.16-0.84Q97.13-1.44 96.19-2.19L96.19-2.19L96.19-2.19Q95.25-2.94 94.31-3.88L94.31-3.88L94.31-3.88Q93.25-4.94 92.63-6.34L92.63-6.34L92.63-6.34Q92-7.75 91.72-9.28L91.72-9.28L91.72-9.28Q91.44-10.81 91.41-12.38L91.41-12.38L91.41-12.38Q91.38-13.94 91.38-15.44L91.38-15.44L91.38-34.06ZM151-35.50L151-27.63L151-27.63Q149.25-28.13 146.75-28.19L146.75-28.19L146.75-28.19Q144.50-28.19 142.28-27.66L142.28-27.66L142.28-27.66Q140.06-27.13 138.75-25.88L138.75-25.88L138.75-12.50L138.75-12.38L138.75 0L131.19 0L131.19-35.25L137.94-35.25L138.75-31.63L138.75-31.63Q139.69-32.56 140.72-33.31L140.72-33.31L140.72-33.31Q141.75-34.06 143.13-34.53L143.13-34.53L143.13-34.53Q144.50-35 146.38-35.25L146.38-35.25L146.38-35.25Q148.25-35.50 151-35.50L151-35.50ZM184.63-19.06L184.63-10.94L184.63-10.44L184.63-10.44Q184.63-9.94 184.69-8.97L184.69-8.97L184.69-8.97Q184.75-8 184.94-7L184.94-7L184.94-7Q185.13-6 185.53-5.19L185.53-5.19L185.53-5.19Q185.94-4.38 186.63-4.13L186.63-4.13L184.63 0.06L184.63 0.06Q183.81 0.06 182.91-0.31L182.91-0.31L182.91-0.31Q182-0.69 181.16-1.38L181.16-1.38L181.16-1.38Q180.31-2.06 179.72-2.91L179.72-2.91L179.72-2.91Q179.13-3.75 178.81-4.75L178.81-4.75L178.81-4.75Q178.38-3.69 177.28-2.78L177.28-2.78L177.28-2.78Q176.19-1.88 174.81-1.16L174.81-1.16L174.81-1.16Q173.44-0.44 171.84-0.06L171.84-0.06L171.84-0.06Q170.25 0.31 168.88 0.31L168.88 0.31L168.88 0.31Q166.75 0.31 164.78-0.25L164.78-0.25L164.78-0.25Q162.81-0.81 161.31-2.06L161.31-2.06L161.31-2.06Q159.81-3.31 158.97-5.38L158.97-5.38L158.97-5.38Q158.13-7.44 158.13-10.44L158.13-10.44L158.13-10.44Q158.13-13.31 159.34-15.41L159.34-15.41L159.34-15.41Q160.56-17.50 162.47-18.84L162.47-18.84L162.47-18.84Q164.38-20.19 166.81-20.84L166.81-20.84L166.81-20.84Q169.25-21.50 171.75-21.50L171.75-21.50L177.06-21.50L177.06-21.50Q177.06-24.56 176.75-26.38L176.75-26.38L176.75-26.38Q176.44-28.19 175.69-29.03L175.69-29.03L175.69-29.03Q174.94-29.88 173.84-30.09L173.84-30.09L173.84-30.09Q172.75-30.31 171.25-30.31L171.25-30.31L171.25-30.31Q169.88-30.31 168.66-29.97L168.66-29.97L168.66-29.97Q167.44-29.63 166.41-29.16L166.41-29.16L166.41-29.16Q165.38-28.69 164.59-28.13L164.59-28.13L164.59-28.13Q163.81-27.56 163.44-27.25L163.44-27.25L160.63-31.56L160.63-31.56Q161.25-32.25 162.50-32.97L162.50-32.97L162.50-32.97Q163.75-33.69 165.38-34.25L165.38-34.25L165.38-34.25Q167-34.81 168.91-35.16L168.91-35.16L168.91-35.16Q170.81-35.50 172.88-35.50L172.88-35.50L172.88-35.50Q174.75-35.50 176.53-35.13L176.53-35.13L176.53-35.13Q178.31-34.75 179.78-33.88L179.78-33.88L179.78-33.88Q181.25-33 182.34-31.53L182.34-31.53L182.34-31.53Q183.44-30.06 183.88-27.88L183.88-27.88L183.88-27.88Q184.31-25.69 184.47-23.47L184.47-23.47L184.47-23.47Q184.63-21.25 184.63-19.06L184.63-19.06ZM177.13-8.44L177.13-17.06L173.13-17.06L173.13-17.06Q171.88-17.06 170.50-16.81L170.50-16.81L170.50-16.81Q169.13-16.56 167.94-15.88L167.94-15.88L167.94-15.88Q166.75-15.19 165.97-13.91L165.97-13.91L165.97-13.91Q165.19-12.63 165.19-10.63L165.19-10.63L165.19-10.63Q165.19-7.50 166.59-6.13L166.59-6.13L166.59-6.13Q168-4.75 170.69-4.75L170.69-4.75L170.69-4.75Q172.56-4.75 174.28-5.75L174.28-5.75L174.28-5.75Q176-6.75 177.13-8.44L177.13-8.44ZM204.06-48.56L204.06-10.75L204.06-10.75Q204.06-8.63 204.63-7.41L204.63-7.41L204.63-7.41Q205.19-6.19 206.19-5.59L206.19-5.59L206.19-5.59Q207.19-5 208.47-4.81L208.47-4.81L208.47-4.81Q209.75-4.63 211.25-4.63L211.25-4.63L211.25 0L211.25 0Q210.44 0.13 209.56 0.19L209.56 0.19L209.56 0.19Q208.88 0.25 207.94 0.28L207.94 0.28L207.94 0.28Q207 0.31 206.06 0.31L206.06 0.31L206.06 0.31Q205.13 0.31 204.19 0.25L204.19 0.25L204.19 0.25Q203.25 0.19 202.50 0.06L202.50 0.06L202.50 0.06Q200.38-0.38 199.19-1.81L199.19-1.81L199.19-1.81Q198-3.25 197.38-5.03L197.38-5.03L197.38-5.03Q196.75-6.81 196.59-8.50L196.59-8.50L196.59-8.50Q196.44-10.19 196.44-11.13L196.44-11.13L196.44-11.88L196.44-48.56L204.06-48.56ZM262.81-12.63L262.81-12.63L262.81-12.63Q262.81-10.13 261.78-7.78L261.78-7.78L261.78-7.78Q260.75-5.44 258.88-3.66L258.88-3.66L258.88-3.66Q257-1.88 254.25-0.81L254.25-0.81L254.25-0.81Q251.50 0.25 248 0.25L248 0.25L248 0.25Q246.50 0.25 244.91 0.09L244.91 0.09L244.91 0.09Q243.31-0.06 241.69-0.44L241.69-0.44L241.69-0.44Q240.06-0.81 238.59-1.47L238.59-1.47L238.59-1.47Q237.13-2.13 236.06-3.06L236.06-3.06L237.38-8.44L237.38-8.44Q238.25-7.94 239.59-7.47L239.59-7.47L239.59-7.47Q240.94-7 242.38-6.59L242.38-6.59L242.38-6.59Q243.81-6.19 245.25-5.94L245.25-5.94L245.25-5.94Q246.69-5.69 247.94-5.69L247.94-5.69L247.94-5.69Q251.75-5.69 253.78-7.47L253.78-7.47L253.78-7.47Q255.81-9.25 255.81-12.75L255.81-12.75L255.81-12.75Q255.81-14.88 254.38-16.38L254.38-16.38L254.38-16.38Q252.94-17.88 250.78-19.09L250.78-19.09L250.78-19.09Q248.63-20.31 246.13-21.53L246.13-21.53L246.13-21.53Q243.63-22.75 241.44-24.41L241.44-24.41L241.44-24.41Q239.25-26.06 237.81-28.31L237.81-28.31L237.81-28.31Q236.38-30.56 236.38-33.94L236.38-33.94L236.38-33.94Q236.38-37 237.50-39.38L237.50-39.38L237.50-39.38Q238.63-41.75 240.53-43.41L240.53-43.41L240.53-43.41Q242.44-45.06 244.97-45.94L244.97-45.94L244.97-45.94Q247.50-46.81 250.31-46.81L250.31-46.81L250.31-46.81Q253.19-46.81 256.13-46.28L256.13-46.28L256.13-46.28Q259.06-45.75 260.88-44.56L260.88-44.56L260.88-44.56Q260.50-43.75 260-42.78L260-42.78L260-42.78Q259.50-41.81 259.06-40.97L259.06-40.97L259.06-40.97Q258.63-40.13 258.31-39.56L258.31-39.56L258.31-39.56Q258-39 257.94-38.94L257.94-38.94L257.94-38.94Q257.56-39.13 257.09-39.44L257.09-39.44L257.09-39.44Q256.63-39.75 255.75-40.06L255.75-40.06L255.75-40.06Q254.88-40.38 253.44-40.50L253.44-40.50L253.44-40.50Q252-40.63 249.75-40.44L249.75-40.44L249.75-40.44Q248.50-40.31 247.38-39.72L247.38-39.72L247.38-39.72Q246.25-39.13 245.38-38.25L245.38-38.25L245.38-38.25Q244.50-37.38 244-36.28L244-36.28L244-36.28Q243.50-35.19 243.50-34.19L243.50-34.19L243.50-34.19Q243.50-31.69 244.94-30.16L244.94-30.16L244.94-30.16Q246.38-28.63 248.50-27.47L248.50-27.47L248.50-27.47Q250.63-26.31 253.13-25.22L253.13-25.22L253.13-25.22Q255.63-24.13 257.78-22.56L257.78-22.56L257.78-22.56Q259.94-21 261.38-18.66L261.38-18.66L261.38-18.66Q262.81-16.31 262.81-12.63ZM280.31-30.13L280.31-10.69L280.31-10.69Q280.31-8.56 280.88-7.38L280.88-7.38L280.88-7.38Q281.44-6.19 282.47-5.56L282.47-5.56L282.47-5.56Q283.50-4.94 284.78-4.78L284.78-4.78L284.78-4.78Q286.06-4.63 287.50-4.63L287.50-4.63L287.50 0L287.50 0Q286.69 0.13 285.88 0.19L285.88 0.19L285.88 0.19Q285.19 0.25 284.22 0.28L284.22 0.28L284.22 0.28Q283.25 0.31 282.31 0.31L282.31 0.31L282.31 0.31Q281.38 0.31 280.41 0.25L280.41 0.25L280.41 0.25Q279.44 0.19 278.75 0.06L278.75 0.06L278.75 0.06Q276.63-0.31 275.44-1.78L275.44-1.78L275.44-1.78Q274.25-3.25 273.66-5.03L273.66-5.03L273.66-5.03Q273.06-6.81 272.91-8.50L272.91-8.50L272.91-8.50Q272.75-10.19 272.75-11.13L272.75-11.13L272.75-30.13L268.13-30.13L268.13-35.25L272.75-35.25L272.75-45.25L280.31-45.25L280.31-35.25L285.94-35.25L285.94-30.13L280.31-30.13ZM322.75-35.25L330.38-35.25L330.38-35.25Q326.94-26.06 324.25-18.97L324.25-18.97L324.25-18.97Q321.56-11.88 319.56-6.53L319.56-6.53L319.56-6.53Q317.56-1.19 316.03 2.50L316.03 2.50L316.03 2.50Q314.50 6.19 313.22 8.66L313.22 8.66L313.22 8.66Q311.94 11.13 310.81 12.53L310.81 12.53L310.81 12.53Q309.69 13.94 308.50 14.69L308.50 14.69L308.50 14.69Q307.31 15.44 305.91 15.59L305.91 15.59L305.91 15.59Q304.50 15.75 302.69 15.75L302.69 15.75L302.69 15.75Q302.13 15.75 301.38 15.59L301.38 15.59L301.38 15.59Q300.63 15.44 299.91 15.22L299.91 15.22L299.91 15.22Q299.19 15 298.63 14.78L298.63 14.78L298.63 14.78Q298.06 14.56 297.88 14.50L297.88 14.50L297.88 14.50Q298.13 13.38 298.38 12.38L298.38 12.38L298.38 12.38Q298.56 11.50 298.78 10.72L298.78 10.72L298.78 10.72Q299 9.94 299.13 9.63L299.13 9.63L299.13 9.63Q299.63 9.63 300.66 9.94L300.66 9.94L300.66 9.94Q301.69 10.25 302.19 10.25L302.19 10.25L302.19 10.25Q303.19 10.25 303.97 10.16L303.97 10.16L303.97 10.16Q304.75 10.06 305.38 9.59L305.38 9.59L305.38 9.59Q306 9.13 306.56 8.22L306.56 8.22L306.56 8.22Q307.13 7.31 307.81 5.63L307.81 5.63L310.19 0L295.75-35.25L303.31-35.25L313.63-8.13L322.75-35.25ZM345.88-48.56L345.88-10.75L345.88-10.75Q345.88-8.63 346.44-7.41L346.44-7.41L346.44-7.41Q347-6.19 348-5.59L348-5.59L348-5.59Q349-5 350.28-4.81L350.28-4.81L350.28-4.81Q351.56-4.63 353.06-4.63L353.06-4.63L353.06 0L353.06 0Q352.25 0.13 351.38 0.19L351.38 0.19L351.38 0.19Q350.69 0.25 349.75 0.28L349.75 0.28L349.75 0.28Q348.81 0.31 347.88 0.31L347.88 0.31L347.88 0.31Q346.94 0.31 346 0.25L346 0.25L346 0.25Q345.06 0.19 344.31 0.06L344.31 0.06L344.31 0.06Q342.19-0.38 341-1.81L341-1.81L341-1.81Q339.81-3.25 339.19-5.03L339.19-5.03L339.19-5.03Q338.56-6.81 338.41-8.50L338.41-8.50L338.41-8.50Q338.25-10.19 338.25-11.13L338.25-11.13L338.25-11.88L338.25-48.56L345.88-48.56ZM375.81-35.63L375.81-35.63L375.81-35.63Q380.06-35.63 383.31-33.91L383.31-33.91L383.31-33.91Q386.56-32.19 388.66-29.34L388.66-29.34L388.66-29.34Q390.75-26.50 391.66-22.78L391.66-22.78L391.66-22.78Q392.56-19.06 392-15.06L392-15.06L367.50-15.06L367.50-15.06Q367.50-13.06 368.25-11.38L368.25-11.38L368.25-11.38Q369-9.69 370.28-8.47L370.28-8.47L370.28-8.47Q371.56-7.25 373.34-6.56L373.34-6.56L373.34-6.56Q375.13-5.88 377.19-5.88L377.19-5.88L377.19-5.88Q377.88-5.88 378.91-6.03L378.91-6.03L378.91-6.03Q379.94-6.19 381.09-6.59L381.09-6.59L381.09-6.59Q382.25-7 383.41-7.63L383.41-7.63L383.41-7.63Q384.56-8.25 385.44-9.13L385.44-9.13L388.19-4.94L388.19-4.94Q386.13-2.38 383.38-1.06L383.38-1.06L383.38-1.06Q380.63 0.25 376.38 0.25L376.38 0.25L376.38 0.25Q372.94 0.25 369.94-1.16L369.94-1.16L369.94-1.16Q366.94-2.56 364.81-5L364.81-5L364.81-5Q362.69-7.44 361.44-10.69L361.44-10.69L361.44-10.69Q360.19-13.94 360.19-17.69L360.19-17.69L360.19-17.69Q360.19-21.38 361.44-24.66L361.44-24.66L361.44-24.66Q362.69-27.94 364.78-30.38L364.78-30.38L364.78-30.38Q366.88-32.81 369.75-34.22L369.75-34.22L369.75-34.22Q372.63-35.63 375.81-35.63ZM367.75-20.56L385-20.56L385-20.56Q385-22.25 384.38-23.88L384.38-23.88L384.38-23.88Q383.75-25.50 382.66-26.81L382.66-26.81L382.66-26.81Q381.56-28.13 380-28.91L380-28.91L380-28.91Q378.44-29.69 376.63-29.75L376.63-29.75L376.63-29.75Q374.69-29.75 373.06-29L373.06-29L373.06-29Q371.44-28.25 370.25-27L370.25-27L370.25-27Q369.06-25.75 368.41-24.03L368.41-24.03L368.41-24.03Q367.75-22.31 367.75-20.56L367.75-20.56ZM417.50-46.06L452.56-46.06L452.56-40.94L438.81-40.94L438.81 0L431.25 0L431.25-40.94L417.50-40.94L417.50-46.06ZM480.94-35.50L480.94-27.63L480.94-27.63Q479.19-28.13 476.69-28.19L476.69-28.19L476.69-28.19Q474.44-28.19 472.22-27.66L472.22-27.66L472.22-27.66Q470-27.13 468.69-25.88L468.69-25.88L468.69-12.50L468.69-12.38L468.69 0L461.13 0L461.13-35.25L467.88-35.25L468.69-31.63L468.69-31.63Q469.63-32.56 470.66-33.31L470.66-33.31L470.66-33.31Q471.69-34.06 473.06-34.53L473.06-34.53L473.06-34.53Q474.44-35 476.31-35.25L476.31-35.25L476.31-35.25Q478.19-35.50 480.94-35.50L480.94-35.50ZM514.56-19.06L514.56-10.94L514.56-10.44L514.56-10.44Q514.56-9.94 514.63-8.97L514.63-8.97L514.63-8.97Q514.69-8 514.88-7L514.88-7L514.88-7Q515.06-6 515.47-5.19L515.47-5.19L515.47-5.19Q515.88-4.38 516.56-4.13L516.56-4.13L514.56 0.06L514.56 0.06Q513.75 0.06 512.84-0.31L512.84-0.31L512.84-0.31Q511.94-0.69 511.09-1.38L511.09-1.38L511.09-1.38Q510.25-2.06 509.66-2.91L509.66-2.91L509.66-2.91Q509.06-3.75 508.75-4.75L508.75-4.75L508.75-4.75Q508.31-3.69 507.22-2.78L507.22-2.78L507.22-2.78Q506.13-1.88 504.75-1.16L504.75-1.16L504.75-1.16Q503.38-0.44 501.78-0.06L501.78-0.06L501.78-0.06Q500.19 0.31 498.81 0.31L498.81 0.31L498.81 0.31Q496.69 0.31 494.72-0.25L494.72-0.25L494.72-0.25Q492.75-0.81 491.25-2.06L491.25-2.06L491.25-2.06Q489.75-3.31 488.91-5.38L488.91-5.38L488.91-5.38Q488.06-7.44 488.06-10.44L488.06-10.44L488.06-10.44Q488.06-13.31 489.28-15.41L489.28-15.41L489.28-15.41Q490.50-17.50 492.41-18.84L492.41-18.84L492.41-18.84Q494.31-20.19 496.75-20.84L496.75-20.84L496.75-20.84Q499.19-21.50 501.69-21.50L501.69-21.50L507-21.50L507-21.50Q507-24.56 506.69-26.38L506.69-26.38L506.69-26.38Q506.38-28.19 505.63-29.03L505.63-29.03L505.63-29.03Q504.88-29.88 503.78-30.09L503.78-30.09L503.78-30.09Q502.69-30.31 501.19-30.31L501.19-30.31L501.19-30.31Q499.81-30.31 498.59-29.97L498.59-29.97L498.59-29.97Q497.38-29.63 496.34-29.16L496.34-29.16L496.34-29.16Q495.31-28.69 494.53-28.13L494.53-28.13L494.53-28.13Q493.75-27.56 493.38-27.25L493.38-27.25L490.56-31.56L490.56-31.56Q491.19-32.25 492.44-32.97L492.44-32.97L492.44-32.97Q493.69-33.69 495.31-34.25L495.31-34.25L495.31-34.25Q496.94-34.81 498.84-35.16L498.84-35.16L498.84-35.16Q500.75-35.50 502.81-35.50L502.81-35.50L502.81-35.50Q504.69-35.50 506.47-35.13L506.47-35.13L506.47-35.13Q508.25-34.75 509.72-33.88L509.72-33.88L509.72-33.88Q511.19-33 512.28-31.53L512.28-31.53L512.28-31.53Q513.38-30.06 513.81-27.88L513.81-27.88L513.81-27.88Q514.25-25.69 514.41-23.47L514.41-23.47L514.41-23.47Q514.56-21.25 514.56-19.06L514.56-19.06ZM507.06-8.44L507.06-17.06L503.06-17.06L503.06-17.06Q501.81-17.06 500.44-16.81L500.44-16.81L500.44-16.81Q499.06-16.56 497.88-15.88L497.88-15.88L497.88-15.88Q496.69-15.19 495.91-13.91L495.91-13.91L495.91-13.91Q495.13-12.63 495.13-10.63L495.13-10.63L495.13-10.63Q495.13-7.50 496.53-6.13L496.53-6.13L496.53-6.13Q497.94-4.75 500.63-4.75L500.63-4.75L500.63-4.75Q502.50-4.75 504.22-5.75L504.22-5.75L504.22-5.75Q505.94-6.75 507.06-8.44L507.06-8.44ZM555.69-1.25L555.69 0L548.06 0L548.06-19.19L548.06-19.19Q548.06-21.31 547.88-23.25L547.88-23.25L547.88-23.25Q547.69-25.19 547-26.69L547-26.69L547-26.69Q546.31-28.19 545.13-29.03L545.13-29.03L545.13-29.03Q543.94-29.88 541.81-29.88L541.81-29.88L541.81-29.88Q541.13-29.88 540.03-29.69L540.03-29.69L540.03-29.69Q538.94-29.50 537.78-29.13L537.78-29.13L537.78-29.13Q536.63-28.75 535.59-28.19L535.59-28.19L535.59-28.19Q534.56-27.63 534.06-26.88L534.06-26.88L534.06-26.50L534.06-26.38L534.06-12.50L534.06-12.38L534.06 0L526.50 0L526.50-35.25L533.25-35.25L534.06-31.69L534.06-31.69Q534.81-32.38 535.97-33.09L535.97-33.09L535.97-33.09Q537.13-33.81 538.50-34.38L538.50-34.38L538.50-34.38Q539.88-34.94 541.31-35.28L541.31-35.28L541.31-35.28Q542.75-35.63 544.13-35.63L544.13-35.63L544.13-35.63Q546.94-35.63 548.88-34.44L548.88-34.44L548.88-34.44Q550.81-33.25 552.75-31.38L552.75-31.38L552.75-31.38Q553.81-30.31 554.41-28.91L554.41-28.91L554.41-28.91Q555-27.50 555.28-25.97L555.28-25.97L555.28-25.97Q555.56-24.44 555.63-22.88L555.63-22.88L555.63-22.88Q555.69-21.31 555.69-19.81L555.69-19.81L555.69-1.25ZM565.44-2.81L565.44-2.81L568.63-7.88L568.63-7.88Q569.88-7 571.59-6.25L571.59-6.25L571.59-6.25Q573.31-5.50 575.94-5.50L575.94-5.50L575.94-5.50Q579.38-5.50 581.31-6.56L581.31-6.56L581.31-6.56Q583.25-7.63 583.25-9.69L583.25-9.69L583.25-9.69Q583.25-11.19 582.13-12.09L582.13-12.09L582.13-12.09Q581-13 579.28-13.66L579.28-13.66L579.28-13.66Q577.56-14.31 575.59-14.91L575.59-14.91L575.59-14.91Q573.63-15.50 571.94-16.38L571.94-16.38L571.94-16.38Q568.63-18.13 566.97-20.06L566.97-20.06L566.97-20.06Q565.31-22 565.31-25.19L565.31-25.19L565.31-25.19Q565.31-27.81 566.41-29.81L566.41-29.81L566.41-29.81Q567.50-31.81 569.25-33.16L569.25-33.16L569.25-33.16Q571-34.50 573.25-35.19L573.25-35.19L573.25-35.19Q575.50-35.88 577.81-35.88L577.81-35.88L577.81-35.88Q580.94-35.88 583.56-35.22L583.56-35.22L583.56-35.22Q586.19-34.56 588.63-33L588.63-33L586.19-27.81L586.19-27.81Q584.31-28.88 582.13-29.28L582.13-29.28L582.13-29.28Q579.94-29.69 577.81-29.69L577.81-29.69L577.81-29.69Q575.50-29.69 574.16-28.66L574.16-28.66L574.16-28.66Q572.81-27.63 572.81-25.44L572.81-25.44L572.81-25.44Q572.81-23.75 574.03-22.78L574.03-22.78L574.03-22.78Q575.25-21.81 577.19-21.06L577.19-21.06L577.19-21.06Q579.13-20.31 581.31-19.56L581.31-19.56L581.31-19.56Q583.50-18.81 585.41-17.66L585.41-17.66L585.41-17.66Q587.31-16.50 588.56-14.75L588.56-14.75L588.56-14.75Q589.81-13 589.81-10.25L589.81-10.25L589.81-10.25Q589.81-7.56 588.75-5.56L588.75-5.56L588.75-5.56Q587.69-3.56 585.88-2.25L585.88-2.25L585.88-2.25Q584.06-0.94 581.69-0.31L581.69-0.31L581.69-0.31Q579.31 0.31 576.63 0.31L576.63 0.31L576.63 0.31Q575 0.31 573.63 0.22L573.63 0.22L573.63 0.22Q572.25 0.13 570.94-0.19L570.94-0.19L570.94-0.19Q569.63-0.50 568.31-1.13L568.31-1.13L568.31-1.13Q567-1.75 565.44-2.81ZM614.69-43.31L614.69-43.31L614.69-43.31Q613.44-43.31 612.59-42.69L612.59-42.69L612.59-42.69Q611.75-42.06 611.19-40.94L611.19-40.94L611.19-40.94Q610.63-39.81 610.38-38.34L610.38-38.34L610.38-38.34Q610.13-36.88 610.06-35.25L610.06-35.25L615.50-35.25L615.50-30.13L609.94-30.13L609.94-27.13L609.94 0L602.31 0L602.31-27.13L602.31-30.13L597.69-30.13L597.69-35.25L602.44-35.25L602.44-35.25Q602.63-37.94 603.19-40.41L603.19-40.41L603.19-40.41Q603.75-42.88 604.97-44.72L604.97-44.72L604.97-44.72Q606.19-46.56 608.28-47.69L608.28-47.69L608.28-47.69Q610.38-48.81 613.56-48.81L613.56-48.81L613.56-48.81Q614.50-48.81 615.56-48.66L615.56-48.66L615.56-48.66Q616.63-48.50 617.66-48.28L617.66-48.28L617.66-48.28Q618.69-48.06 619.56-47.75L619.56-47.75L619.56-47.75Q620.44-47.44 620.94-47.06L620.94-47.06L618.50-42.56L618.50-42.56Q617.63-43.06 616.41-43.19L616.41-43.19L616.41-43.19Q615.19-43.31 614.69-43.31ZM643.50-35.63L643.50-35.63L643.50-35.63Q647.75-35.63 651-33.91L651-33.91L651-33.91Q654.25-32.19 656.34-29.34L656.34-29.34L656.34-29.34Q658.44-26.50 659.34-22.78L659.34-22.78L659.34-22.78Q660.25-19.06 659.69-15.06L659.69-15.06L635.19-15.06L635.19-15.06Q635.19-13.06 635.94-11.38L635.94-11.38L635.94-11.38Q636.69-9.69 637.97-8.47L637.97-8.47L637.97-8.47Q639.25-7.25 641.03-6.56L641.03-6.56L641.03-6.56Q642.81-5.88 644.88-5.88L644.88-5.88L644.88-5.88Q645.56-5.88 646.59-6.03L646.59-6.03L646.59-6.03Q647.63-6.19 648.78-6.59L648.78-6.59L648.78-6.59Q649.94-7 651.09-7.63L651.09-7.63L651.09-7.63Q652.25-8.25 653.13-9.13L653.13-9.13L655.88-4.94L655.88-4.94Q653.81-2.38 651.06-1.06L651.06-1.06L651.06-1.06Q648.31 0.25 644.06 0.25L644.06 0.25L644.06 0.25Q640.63 0.25 637.63-1.16L637.63-1.16L637.63-1.16Q634.63-2.56 632.50-5L632.50-5L632.50-5Q630.38-7.44 629.13-10.69L629.13-10.69L629.13-10.69Q627.88-13.94 627.88-17.69L627.88-17.69L627.88-17.69Q627.88-21.38 629.13-24.66L629.13-24.66L629.13-24.66Q630.38-27.94 632.47-30.38L632.47-30.38L632.47-30.38Q634.56-32.81 637.44-34.22L637.44-34.22L637.44-34.22Q640.31-35.63 643.50-35.63ZM635.44-20.56L652.69-20.56L652.69-20.56Q652.69-22.25 652.06-23.88L652.06-23.88L652.06-23.88Q651.44-25.50 650.34-26.81L650.34-26.81L650.34-26.81Q649.25-28.13 647.69-28.91L647.69-28.91L647.69-28.91Q646.13-29.69 644.31-29.75L644.31-29.75L644.31-29.75Q642.38-29.75 640.75-29L640.75-29L640.75-29Q639.13-28.25 637.94-27L637.94-27L637.94-27Q636.75-25.75 636.09-24.03L636.09-24.03L636.09-24.03Q635.44-22.31 635.44-20.56L635.44-20.56ZM690.06-35.50L690.06-27.63L690.06-27.63Q688.31-28.13 685.81-28.19L685.81-28.19L685.81-28.19Q683.56-28.19 681.34-27.66L681.34-27.66L681.34-27.66Q679.13-27.13 677.81-25.88L677.81-25.88L677.81-12.50L677.81-12.38L677.81 0L670.25 0L670.25-35.25L677-35.25L677.81-31.63L677.81-31.63Q678.75-32.56 679.78-33.31L679.78-33.31L679.78-33.31Q680.81-34.06 682.19-34.53L682.19-34.53L682.19-34.53Q683.56-35 685.44-35.25L685.44-35.25L685.44-35.25Q687.31-35.50 690.06-35.50L690.06-35.50Z" fill="#ffffff"></path></g></g><style>text {
  font-size: 64px;
  font-family: Arial Black;
  dominant-baseline: central;
  text-anchor: middle;
}</style></svg>